<svg xmlns="http://www.w3.org/2000/svg" width="400" height="300" viewBox="0 0 400 300"><defs><filter id="grain"><feTurbulence type="fractalNoise" baseFrequency="0.58" numOctaves="3" stitchTiles="stitch"/><feColorMatrix type="saturate" values="0"/><feComponentTransfer><feFuncA type="linear" slope="0.08"/></feComponentTransfer><feBlend mode="multiply" in2="SourceGraphic"/></filter></defs><rect width="400" height="300" fill="#f4ecdd"/><g filter="url(#grain)"><ellipse cx="200" cy="258" rx="122" ry="10" fill="#dce0ca" opacity=".66"/><g stroke="#405a4b" stroke-linecap="round" stroke-linejoin="round">
<path d="M124 96H276V252H124Z" fill="#bf935b" stroke-width="2.6"/><path d="M134 106H266V238H134Z" fill="#8f6a44" stroke-width="2"/><path d="M134 146H266V154H134Z" fill="#bf935b" stroke-width="2"/><path d="M134 190H266V198H134Z" fill="#bf935b" stroke-width="2"/><path d="M120 90H280V98H120Z" fill="#aa8154" stroke-width="2.3"/><path d="M128 252V257M272 252V257" fill="none" stroke-width="3"/><path d="M128 104V246M271 104V246" fill="none" stroke="#e4c28b" stroke-width="1.3"/><path d="M134 146V119H144V146Z" fill="#f5f1e7" stroke-width="1.6"/><path d="M136 125H142" fill="none" stroke="#fffef9" stroke-width="1.2" opacity=".6"/><path d="M144 146V114H155V146Z" fill="#e5cb8a" stroke-width="1.6"/><path d="M146 120H153" fill="none" stroke="#fffef9" stroke-width="1.2" opacity=".6"/><path d="M155 146V116H170V146Z" fill="#526653" stroke-width="1.6"/><path d="M157 122H168" fill="none" stroke="#fffef9" stroke-width="1.2" opacity=".6"/><path d="M170 146V111H181V146Z" fill="#695b43" stroke-width="1.6"/><path d="M172 117H179" fill="none" stroke="#fffef9" stroke-width="1.2" opacity=".6"/><path d="M181 146V114H192V146Z" fill="#768e79" stroke-width="1.6"/><path d="M183 120H190" fill="none" stroke="#fffef9" stroke-width="1.2" opacity=".6"/><path d="M192 146V112H200V146Z" fill="#695b43" stroke-width="1.6"/><path d="M194 118H198" fill="none" stroke="#fffef9" stroke-width="1.2" opacity=".6"/><path d="M200 146V119H214V146Z" fill="#e5cb8a" stroke-width="1.6"/><path d="M202 125H212" fill="none" stroke="#fffef9" stroke-width="1.2" opacity=".6"/><path d="M222 146L236 116.48 245 117.92 232 146Z" fill="#b8664a" stroke-width="1.6"/><path d="M236 146V139H263V146Z" fill="#c28260" stroke-width="1.6"/><path d="M239 139V132H266V139Z" fill="#b8664a" stroke-width="1.6"/><path d="M236 132V125H263V132Z" fill="#695b43" stroke-width="1.6"/><path d="M136 190V183H173V190Z" fill="#b8664a" stroke-width="1.6"/><path d="M139 183V176H176V183Z" fill="#695b43" stroke-width="1.6"/><path d="M136 176V169H173V176Z" fill="#7c947e" stroke-width="1.6"/><path d="M139 169V162H176V169Z" fill="#526653" stroke-width="1.6"/><path d="M178 190V156H191V190Z" fill="#e5cb8a" stroke-width="1.6"/><path d="M180 162H189" fill="none" stroke="#fffef9" stroke-width="1.2" opacity=".6"/><path d="M191 190V162H200V190Z" fill="#695b43" stroke-width="1.6"/><path d="M193 168H198" fill="none" stroke="#fffef9" stroke-width="1.2" opacity=".6"/><path d="M200 190V161H209V190Z" fill="#dfa98b" stroke-width="1.6"/><path d="M202 167H207" fill="none" stroke="#fffef9" stroke-width="1.2" opacity=".6"/><path d="M209 190V159H219V190Z" fill="#dfa98b" stroke-width="1.6"/><path d="M211 165H217" fill="none" stroke="#fffef9" stroke-width="1.2" opacity=".6"/><path d="M219 190V160H234V190Z" fill="#e5cb8a" stroke-width="1.6"/><path d="M221 166H232" fill="none" stroke="#fffef9" stroke-width="1.2" opacity=".6"/><path d="M234 190V160H245V190Z" fill="#c9c9bd" stroke-width="1.6"/><path d="M236 166H243" fill="none" stroke="#fffef9" stroke-width="1.2" opacity=".6"/><path d="M245 190V157H255V190Z" fill="#c28260" stroke-width="1.6"/><path d="M247 163H253" fill="none" stroke="#fffef9" stroke-width="1.2" opacity=".6"/><path d="M255 190V164H266V190Z" fill="#526653" stroke-width="1.6"/><path d="M257 170H264" fill="none" stroke="#fffef9" stroke-width="1.2" opacity=".6"/><path d="M134 238V203H145V238Z" fill="#768e79" stroke-width="1.6"/><path d="M136 209H143" fill="none" stroke="#fffef9" stroke-width="1.2" opacity=".6"/><path d="M145 238V210H160V238Z" fill="#dfa98b" stroke-width="1.6"/><path d="M147 216H158" fill="none" stroke="#fffef9" stroke-width="1.2" opacity=".6"/><path d="M160 238V204H173V238Z" fill="#e5cb8a" stroke-width="1.6"/><path d="M162 210H171" fill="none" stroke="#fffef9" stroke-width="1.2" opacity=".6"/><path d="M173 238V212H181V238Z" fill="#c28260" stroke-width="1.6"/><path d="M175 218H179" fill="none" stroke="#fffef9" stroke-width="1.2" opacity=".6"/><path d="M181 238V208H191V238Z" fill="#dfa98b" stroke-width="1.6"/><path d="M183 214H189" fill="none" stroke="#fffef9" stroke-width="1.2" opacity=".6"/><path d="M191 238V209H206V238Z" fill="#7c947e" stroke-width="1.6"/><path d="M193 215H204" fill="none" stroke="#fffef9" stroke-width="1.2" opacity=".6"/><path d="M220 238V231H259V238Z" fill="#695b43" stroke-width="1.6"/><path d="M223 231V224H262V231Z" fill="#7c947e" stroke-width="1.6"/><path d="M220 224V217H259V224Z" fill="#526653" stroke-width="1.6"/><path d="M0 0Q-8 -15.3 0 -34Q8 -15.3 0 0Z" transform="translate(200 68) rotate(-62) scale(1.1)" fill="#768e79" stroke-width="1.6"/><path d="M0 0Q-8 -15.3 0 -34Q8 -15.3 0 0Z" transform="translate(200 68) rotate(60) scale(1.1)" fill="#768e79" stroke-width="1.6"/><path d="M0 0Q-8 -19.8 0 -44Q8 -19.8 0 0Z" transform="translate(200 68) rotate(-34) scale(1.1)" fill="#607b57" stroke-width="1.6"/><path d="M0 0Q-8 -18.900000000000002 0 -42Q8 -18.900000000000002 0 0Z" transform="translate(200 68) rotate(30) scale(1.1)" fill="#607b57" stroke-width="1.6"/><path d="M0 0Q-8 -22.5 0 -50Q8 -22.5 0 0Z" transform="translate(200 68) rotate(-8) scale(1.1)" fill="#768e79" stroke-width="1.6"/><path d="M0 0Q-8 -20.7 0 -46Q8 -20.7 0 0Z" transform="translate(200 68) rotate(12) scale(1.1)" fill="#5f7d5f" stroke-width="1.6"/><path d="M182.4 68H217.6L213.2 90H186.8Z" fill="#945f45" stroke-width="2.2"/><path d="M179.1 61.4H220.9V69.1H179.1Z" fill="#b8664a" stroke-width="2.1"/>
</g></g></svg>