<svg xmlns="http://www.w3.org/2000/svg" width="400" height="300" viewBox="0 0 400 300"><defs><filter id="grain"><feTurbulence type="fractalNoise" baseFrequency="0.58" numOctaves="3" stitchTiles="stitch"/><feColorMatrix type="saturate" values="0"/><feComponentTransfer><feFuncA type="linear" slope="0.08"/></feComponentTransfer><feBlend mode="multiply" in2="SourceGraphic"/></filter></defs><rect width="400" height="300" fill="#eef0e4"/><g filter="url(#grain)"><ellipse cx="200" cy="258" rx="140" ry="10" fill="#dce0ca" opacity=".66"/><g stroke="#405a4b" stroke-linecap="round" stroke-linejoin="round">
 <path d="M84 234H96A26 26 0 0 1 148 234H254A26 26 0 0 1 306 234H322Q332 232 332 222V196Q332 181 317 177L264 164Q246 132 230 121Q222 115 208 115H124Q110 115 102 127L82 162Q72 174 72 192V222Q72 234 84 234Z" fill="#768e79" stroke-width="2.6"/>
 <path d="M100 160L114 134Q120 124 130 124H160V160Z" fill="#c9c9bd" stroke-width="2.3"/>
 <path d="M168 124H206Q218 124 227 134L247 160H168Z" fill="#c9c9bd" stroke-width="2.3"/>
 <path d="M116 150L134 128M126 156L148 128M186 150L206 128M198 156L222 130" fill="none" stroke="#fffef9" stroke-width="3" opacity=".75"/>
 <path d="M164 118V230M250 164Q254 198 252 230M88 176Q84 196 86 214" fill="none" stroke="#5f7d5f" stroke-width="1.8"/>
 <path d="M76 190H330" fill="none" stroke="#5f7d5f" stroke-width="1.5"/>
 <path d="M176 176H192" fill="none" stroke-width="3.2"/>
 <path d="M246 150Q252 144 258 150L258 160 248 160Z" fill="#768e79" stroke-width="2"/>
 <path d="M312 180Q326 183 330 194L318 194Q312 190 312 180Z" fill="#f5f1e7" stroke-width="1.8"/>
 <path d="M74 176Q80 170 86 172V194H73Z" fill="#b8664a" stroke-width="1.8"/>
 <path d="M70 214H92Q96 214 96 220V224H72Q68 224 68 219Z" fill="#9a9d92" stroke-width="2"/>
 <path d="M308 214H332Q336 214 336 219Q336 224 332 224H308Z" fill="#9a9d92" stroke-width="2"/>
 <path d="M112 172Q170 164 238 168M124 131Q140 121 200 120" fill="none" stroke="#fffef9" stroke-width="3.2" opacity=".6"/>
 <circle cx="122" cy="234" r="21" fill="#534d3e" stroke-width="2.6"/>
 <circle cx="122" cy="234" r="10.5" fill="#c9c9bd" stroke-width="2"/>
 <circle cx="122" cy="234" r="3" fill="#9a9d92" stroke-width="1.4"/>
 <circle cx="280" cy="234" r="21" fill="#534d3e" stroke-width="2.6"/>
 <circle cx="280" cy="234" r="10.5" fill="#c9c9bd" stroke-width="2"/>
 <circle cx="280" cy="234" r="3" fill="#9a9d92" stroke-width="1.4"/>
 <path d="M236 88Q238 98 246 100Q238 102 236 112Q234 102 226 100Q234 98 236 88Z" fill="#fffef9" stroke-width="1.5"/>
 <path d="M258 102Q259 107 263 108Q259 109 258 114Q257 109 253 108Q257 107 258 102Z" fill="#fffef9" stroke-width="1.2"/>
 </g></g></svg>
