<svg xmlns="http://www.w3.org/2000/svg" width="400" height="300" viewBox="0 0 400 300"><defs><filter id="grain"><feTurbulence type="fractalNoise" baseFrequency="0.58" numOctaves="3" stitchTiles="stitch"/><feColorMatrix type="saturate" values="0"/><feComponentTransfer><feFuncA type="linear" slope="0.08"/></feComponentTransfer><feBlend mode="multiply" in2="SourceGraphic"/></filter></defs><rect width="400" height="300" fill="#f1ede4"/><g filter="url(#grain)"><ellipse cx="200" cy="258" rx="122" ry="10" fill="#dce0ca" opacity=".66"/><g transform="translate(6 3) scale(.9)"><g stroke="#405a4b" stroke-linecap="round" stroke-linejoin="round"><path d="M100 189L98 267 119 267 130 210 137 267 157 267 148 188Z" fill="#526653" stroke-width="2.5"/><path d="M98 265L91 278Q107 283 124 278L123 266M137 265L136 279 168 279Q174 275 156 268" fill="#534d3e" stroke-width="2.3"/><path d="M101 108L89 178 103 181 121 125" fill="#c2a66e" stroke-width="2.5"/><path d="M89 178Q86 196 96 199Q105 198 103 181" fill="#cf9671" stroke-width="2"/><path d="M148 118L160 156 188 128" fill="none" stroke-width="18"/><path d="M148 118L160 156 188 128" fill="none" stroke="#c2a66e" stroke-width="13"/><path d="M114 94L99 111 98 190Q124 203 153 190L154 111 139 95Z" fill="#c6aa70" stroke-width="2.5"/><path d="M128 101V192M112 142H122V158H110" fill="none" stroke="#93845c" stroke-width="1.5"/><circle cx="132" cy="128" r="1.7" fill="#405a4b"/><circle cx="132" cy="156" r="1.7" fill="#405a4b"/><path d="M118 81V99L129 108 140 98 137 78" fill="#cf9671" stroke-width="2"/><path d="M106 53Q109 32 131 33Q153 35 152 60L153 73Q151 91 132 92Q113 90 109 72Q99 69 103 60L109 60" fill="#dba57c" stroke-width="2"/><path d="M107 61Q101 41 115 33Q132 19 148 32Q159 37 154 49L135 46Q119 54 115 46L111 64Z" fill="#695b43" stroke-width="2"/><path d="M145 61L149 71 143 72" fill="none" stroke-width="1.4"/><circle cx="137" cy="61" r="1.7" fill="#405a4b"/><path d="M138 79Q143 87 148 78Z" fill="#98573f" stroke-width="1.4"/><path d="M120 96L129 108 119 113 112 99M139 97L129 108 139 113 145 101" fill="#ded0a5" stroke-width="1.5"/><path d="M184 131Q184 118 194 114L206 111Q211 111 208 116L200 119 211 119Q214 122 210 125L196 130Q190 136 184 131Z" fill="#cf9671" stroke-width="2"/></g></g><g transform="translate(394 3) scale(-.9 .9)"><g stroke="#405a4b" stroke-linecap="round" stroke-linejoin="round"><path d="M115 214L115 268H131L137 215M143 214L147 268H163L161 213" fill="#dfa98b" stroke-width="2.4"/><path d="M115 267L107 279Q120 283 138 279L134 268M147 266L146 280H176Q182 275 165 268" fill="#3f584a" stroke-width="2.4"/><path d="M114 98L95 162 98 189 111 188 113 163 130 116" fill="#7c947e" stroke-width="2.4"/><path d="M98 188Q94 205 103 208Q112 208 111 188" fill="#dfa98b" stroke-width="2"/><path d="M152 116L164 156 192 134" fill="none" stroke-width="17"/><path d="M152 116L164 156 192 134" fill="none" stroke="#7c947e" stroke-width="12"/><path d="M121 97L111 112 117 162 99 219Q134 233 174 218L154 161 163 114 147 98Z" fill="#b97656" stroke-width="2.5"/><path d="M121 97L111 112 117 159Q137 166 155 158L163 114 147 98Z" fill="#7c947e" stroke-width="2"/><path d="M124 84V101L134 109 145 101 145 83" fill="#dfa98b" stroke-width="2"/><path d="M114 52Q113 28 136 28Q157 28 160 53L158 76Q157 91 137 91Q119 90 116 74Z" fill="#dfa98b" stroke-width="2"/><path d="M117 73Q99 52 116 30Q131 15 152 29Q168 39 160 55Q143 52 136 39Q128 54 118 55Z" fill="#77533e" stroke-width="2.5"/><path d="M113 42Q88 42 96 66Q111 73 117 56" fill="#77533e" stroke-width="2"/><circle cx="144" cy="62" r="1.6" fill="#405a4b"/><path d="M153 63L158 71 151 72" fill="none" stroke-width="1.3"/><path d="M144 79Q150 87 154 78Z" fill="#98573f" stroke-width="1.3"/><path d="M124 102L134 111 145 102M136 114V157M118 182L114 211M153 180L160 214" fill="none" stroke="#dbc8a3" stroke-width="1.4"/><path d="M188 137Q187 124 197 120L209 117Q214 117 211 122L203 125 213 125Q216 128 212 131L199 136Q193 142 188 137Z" fill="#dfa98b" stroke-width="2"/></g></g><g stroke="#405a4b" stroke-linecap="round" stroke-linejoin="round"><path d="M181.6 43.8A21 14 0 1 0 171.5 43.3L160 56Z" fill="#fffef9" stroke-width="2.3"/><path d="M231.9 62.4A21 14 0 1 0 222.7 64.0L242 72Z" fill="#fffef9" stroke-width="2.3"/></g></g></svg>