<svg xmlns="http://www.w3.org/2000/svg" width="400" height="300" viewBox="0 0 400 300"><defs><filter id="grain"><feTurbulence type="fractalNoise" baseFrequency="0.58" numOctaves="3" stitchTiles="stitch"/><feColorMatrix type="saturate" values="0"/><feComponentTransfer><feFuncA type="linear" slope="0.08"/></feComponentTransfer><feBlend mode="multiply" in2="SourceGraphic"/></filter></defs><rect width="400" height="300" fill="#efeedd"/><g filter="url(#grain)"><rect width="400" height="300" fill="#efeedd"/><path d="M0 214H400V300H0Z" fill="#c9b48c"/><path d="M0 214H400" stroke="#a8936b" stroke-width="3"/>
<ellipse cx="196" cy="272" rx="120" ry="9" fill="#a8936b" opacity=".45"/>
<g stroke="#405a4b" stroke-linecap="round" stroke-linejoin="round">
 <g transform="rotate(-6 196 160)">
  <path d="M110 40H282V270H110Z" fill="#9a7a55" stroke-width="2.6"/>
  <path d="M122 54H270V262H122Z" fill="#fffef9" stroke-width="2"/>
  <path d="M168 30H224V54H168Z" fill="#c9c9bd" stroke-width="2.2"/>
  <path d="M182 36H210" fill="none" stroke-width="1.6"/>
  <path d="M136 74H226" fill="none" stroke="#526653" stroke-width="5"/>
  <g fill="none" stroke="#9aa392" stroke-width="2">
   <path d="M136 100H174M182 100H256M136 124H174M182 124H256M136 148H174M182 148H256M136 172H174M182 172H220"/>
  </g>
  <path d="M184 96Q196 90 206 96T232 94M184 120Q200 114 214 120M184 144Q194 140 206 144T228 142" fill="none" stroke="#3d5c8a" stroke-width="1.8"/>
  <path d="M136 196H152V212H136Z" fill="none" stroke-width="1.8"/>
  <path d="M139 203L144 209 153 194" fill="none" stroke="#3d5c8a" stroke-width="2.4"/>
  <path d="M160 204H230" fill="none" stroke="#9aa392" stroke-width="2"/>
  <path d="M136 244H256" fill="none" stroke="#9aa392" stroke-width="2"/>
  <path d="M146 238Q154 220 160 236T174 232Q180 226 186 236Q194 242 204 228" fill="none" stroke="#3d5c8a" stroke-width="2.2"/>
 </g>
 <g transform="rotate(38 300 190)">
  <path d="M292 120H308V236H292Z" fill="#526653" stroke-width="2.2"/>
  <path d="M292 236L300 258 308 236Z" fill="#e4c28b" stroke-width="2"/>
  <path d="M298 252L300 258 302 252Z" fill="#405a4b" stroke-width="1.2"/>
  <path d="M292 132H308" fill="none" stroke="#c2a66e" stroke-width="4"/>
 </g>
</g>
</g></svg>