<svg xmlns="http://www.w3.org/2000/svg" width="400" height="300" viewBox="0 0 400 300"><defs><filter id="grain"><feTurbulence type="fractalNoise" baseFrequency="0.58" numOctaves="3" stitchTiles="stitch"/><feColorMatrix type="saturate" values="0"/><feComponentTransfer><feFuncA type="linear" slope="0.08"/></feComponentTransfer><feBlend mode="multiply" in2="SourceGraphic"/></filter></defs><rect width="400" height="300" fill="#f4ecdd"/><g filter="url(#grain)"><ellipse cx="205" cy="258" rx="130" ry="10" fill="#dce0ca" opacity=".66"/><g stroke="#405a4b" stroke-linecap="round" stroke-linejoin="round"><path d="M292 190Q298 180 304 190M300 190Q308 178 314 190" fill="none" stroke-width="2"/><path d="M302 200L300 176Q302 168 308 170L312 200Z" fill="#768e79" stroke-width="2"/><path d="M312 202L318 166Q322 160 326 166L322 202Z" fill="#e4c28b" stroke-width="2"/><path d="M286 196H330L326 246H290Z" fill="#c5a06c" stroke-width="2.3"/><path d="M288 204H328" fill="none" stroke="#aa8154" stroke-width="1.5"/><path d="M296 190Q300 176 306 188" fill="none" stroke-width="2"/></g><g transform="translate(20 -3) scale(.94)"><g stroke="#405a4b" stroke-linecap="round" stroke-linejoin="round"><path d="M100 191L100 267 120 267 128 214 136 267 156 267 151 190Z" fill="#695b43" stroke-width="2.5"/><path d="M100 265L93 278Q109 283 126 278L121 266M136 265L135 279 167 279Q173 275 155 268" fill="#534d3e" stroke-width="2.3"/><path d="M175 180Q173 166 183 166Q192 167 190 177L190 180M187 178L193 270" fill="none" stroke-width="6.5"/><path d="M175 180Q173 166 183 166Q192 167 190 177L190 180M187 178L193 270" fill="none" stroke="#a9825b" stroke-width="3"/><g transform="rotate(10 125 190)"><path d="M101 110L90 180 104 183 121 127" fill="#6f8872" stroke-width="2.5"/><path d="M90 180Q87 197 97 200Q106 199 104 183" fill="#cf9671" stroke-width="2"/><path d="M148 116L161 150 170 172" fill="none" stroke-width="16"/><path d="M148 116L161 150 170 172" fill="none" stroke="#6f8872" stroke-width="11.5"/><path d="M116 93Q97 97 96 122L97 197Q124 209 154 197L154 111 139 95Z" fill="#768e79" stroke-width="2.5"/><path d="M98 188Q124 199 154 188" fill="none" stroke="#5f7d5f" stroke-width="1.4"/><path d="M118 96L129 126 141 97Z" fill="#f5f1e7" stroke-width="1.8"/><path d="M129 126V201M106 158H121V174" fill="none" stroke="#5f7d5f" stroke-width="1.5"/><circle cx="133" cy="142" r="1.8" fill="#405a4b"/><circle cx="133" cy="162" r="1.8" fill="#405a4b"/><circle cx="133" cy="182" r="1.8" fill="#405a4b"/><g transform="rotate(9 129 104)"><path d="M118 81V99L129 108 140 98 137 78" fill="#cf9671" stroke-width="2"/><path d="M120 96L129 108 121 113 114 99M139 97L129 108 138 113 144 101" fill="#fffef9" stroke-width="1.5"/><path d="M106 53Q109 32 131 33Q153 35 152 60L153 73Q151 91 132 92Q113 90 109 72Q99 69 103 60L109 60" fill="#dba57c" stroke-width="2"/><path d="M108 66Q99 44 113 35Q127 26 142 31Q148 34 151 40Q136 36 125 41Q116 47 114 62Z" fill="#c9c9bd" stroke-width="2"/><path d="M106 64Q101 70 106 76" fill="none" stroke-width="1.4"/><path d="M131 52Q136 49 142 52" fill="none" stroke="#9a9d92" stroke-width="3"/><circle cx="139" cy="62" r="1.7" fill="#405a4b"/><circle cx="139" cy="62" r="6.3" fill="#fffef9" fill-opacity=".3" stroke-width="1.5"/><path d="M132.7 61L113 59M145.3 61L147 60" fill="none" stroke-width="1.5"/><path d="M147 62L150 71 144 72M140 83Q145 85 148 82M129 72Q127 77 130 81" fill="none" stroke-width="1.4"/><path d="M139 78Q144 74 151 77Q147 81 139 78Z" fill="#c9c9bd" stroke-width="1.3"/></g></g><path d="M176 176Q181 169 186 173Q191 180 187 186Q181 191 176 186Z" fill="#cf9671" stroke-width="2"/></g></g><g transform="translate(378.6 -3) scale(-.94 .94)"><g stroke="#405a4b" stroke-linecap="round" stroke-linejoin="round"><path d="M100 189L98 267 119 267 130 210 137 267 157 267 148 188Z" fill="#526653" stroke-width="2.5"/><path d="M98 265L91 278Q107 283 124 278L123 266M137 265L136 279 168 279Q174 275 156 268" fill="#534d3e" stroke-width="2.3"/><path d="M101 108L82 176 96 181 121 125" fill="#c2a66e" stroke-width="2.5"/><path d="M82 176Q78 194 88 197Q98 197 96 181" fill="#cf9671" stroke-width="2"/><path d="M150 116 182 146 203 152" fill="none" stroke-width="17.5"/><path d="M150 116 182 146 203 152" fill="none" stroke="#c2a66e" stroke-width="13"/><path d="M114 94L99 111 98 190Q124 203 153 190L154 111 139 95Z" fill="#c6aa70" stroke-width="2.5"/><path d="M128 101V192M112 142H122V158H110" fill="none" stroke="#93845c" stroke-width="1.5"/><circle cx="132" cy="128" r="1.7" fill="#405a4b"/><circle cx="132" cy="156" r="1.7" fill="#405a4b"/><path d="M118 81V99L129 108 140 98 137 78" fill="#cf9671" stroke-width="2"/><path d="M106 53Q109 32 131 33Q153 35 152 60L153 73Q151 91 132 92Q113 90 109 72Q99 69 103 60L109 60" fill="#dba57c" stroke-width="2"/><path d="M107 61Q101 41 115 33Q132 19 148 32Q159 37 154 49L135 46Q119 54 115 46L111 64Z" fill="#695b43" stroke-width="2"/><path d="M145 61L149 71 143 72M137 81Q144 84 147 79" fill="none" stroke-width="1.4"/><circle cx="137" cy="61" r="1.7" fill="#405a4b"/><path d="M120 96L129 108 119 113 112 99M139 97L129 108 139 113 145 101" fill="#ded0a5" stroke-width="1.5"/><ellipse cx="208" cy="154" rx="7" ry="9.5" transform="rotate(-70 208 154)" fill="#cf9671" stroke-width="2"/></g></g></g></svg>