<svg xmlns="http://www.w3.org/2000/svg" width="400" height="300" viewBox="0 0 400 300"><defs><filter id="grain"><feTurbulence type="fractalNoise" baseFrequency="0.58" numOctaves="3" stitchTiles="stitch"/><feColorMatrix type="saturate" values="0"/><feComponentTransfer><feFuncA type="linear" slope="0.08"/></feComponentTransfer><feBlend mode="multiply" in2="SourceGraphic"/></filter></defs><rect width="400" height="300" fill="#efeedd"/><g filter="url(#grain)"><ellipse cx="200" cy="258" rx="122" ry="10" fill="#dce0ca" opacity=".66"/><g transform="translate(-22 0)"><g stroke="#405a4b" stroke-linecap="round" stroke-linejoin="round"><path d="M136 186V104Q136 98 142 98H146Q152 98 152 104V186Z" fill="#bf935b" stroke-width="2.5"/><path d="M140 195H147V256H140ZM194 195H201V256H194Z" fill="#aa8154" stroke-width="2.2"/><path d="M134 186H208V195H134Z" fill="#c5a06c" stroke-width="2.5"/><path d="M204 154H212V256H204ZM350 154H358V256H350Z" fill="#aa8154" stroke-width="2.2"/><path d="M190 146H372V155H190Z" fill="#aa8154" stroke-width="2.4"/><path d="M206 124H356L372 146H190Z" fill="#c5a06c" stroke-width="2.5"/><path d="M204 140H358" fill="none" stroke="#e4c28b" stroke-width="1.3"/><path d="M262 142H314L306 128H268Z" fill="#f5f1e7" stroke-width="1.8"/><path d="M240 145H298L290 127H248Z" fill="#fffef9" stroke-width="2"/><path d="M252 131Q256 129 260 131T268 131T276 131T284 131M251 135Q255 133 259 135T267 135T275 135T283 135T290 135M249.5 139Q253.5 137 257.5 139T265.5 139T273.5 139" fill="none" stroke="#9a9d92" stroke-width="1.2"/><path d="M344 116Q358 114 358 124Q358 134 344 132" fill="none" stroke-width="7"/><path d="M344 116Q358 114 358 124Q358 134 344 132" fill="none" stroke="#f5f1e7" stroke-width="3"/><path d="M320 110V132Q320 138 326 138H340Q346 138 346 132V110Z" fill="#f5f1e7" stroke-width="2.3"/><path d="M320.5 118H345.5V124H320.5Z" fill="#7c947e" stroke-width="1.5"/><ellipse cx="333" cy="110" rx="13" ry="3.5" fill="#534d3e" stroke-width="2"/><path d="M329 102Q324 96 329 90Q334 84 329 78M338 102Q334 97 338 92" fill="none" stroke="#b3b8a8" stroke-width="3"/></g><g transform="translate(62 -8) scale(.97)"><g stroke="#405a4b" stroke-linecap="round" stroke-linejoin="round"><path d="M168 200L166 262H182L186 200Z" fill="#526653" stroke-width="2.5"/><path d="M166 261L164 273H192Q198 270 186 264L182 261" fill="#534d3e" stroke-width="2.3"/><path d="M104 170L190 173Q208 175 208 194L206 262H188L188 207 150 206 104 198Z" fill="#526653" stroke-width="2.5"/><path d="M188 261L186 274H216Q223 270 209 264L206 261" fill="#534d3e" stroke-width="2.3"/><path d="M104 110L122 150 188 140 188 127 138 132 122 108" fill="#c2a66e" stroke-width="2.5"/><path d="M188 127Q201 126 204 132Q204 140 188 140" fill="#cf9671" stroke-width="2"/><path d="M114 94L99 111 98 190Q124 203 153 190L154 111 139 95Z" fill="#c6aa70" stroke-width="2.5"/><path d="M128 101V192M112 142H122V158H110" fill="none" stroke="#93845c" stroke-width="1.5"/><circle cx="132" cy="128" r="1.7" fill="#405a4b"/><circle cx="132" cy="156" r="1.7" fill="#405a4b"/><path d="M118 81V99L129 108 140 98 137 78" fill="#cf9671" stroke-width="2"/><g transform="rotate(15 128 90)"><path d="M106 53Q109 32 131 33Q153 35 152 60L153 73Q151 91 132 92Q113 90 109 72Q99 69 103 60L109 60" fill="#dba57c" stroke-width="2"/><path d="M107 61Q101 41 115 33Q132 19 148 32Q159 37 154 49L135 46Q119 54 115 46L111 64Z" fill="#695b43" stroke-width="2"/><path d="M145 61L149 71 143 72" fill="none" stroke-width="1.4"/><circle cx="137" cy="61" r="1.7" fill="#405a4b"/><path d="M138 81Q144 83 147 80" fill="none" stroke-width="1.4"/></g><path d="M120 96L129 108 119 113 112 99M139 97L129 108 139 113 145 101" fill="#ded0a5" stroke-width="1.5"/><path d="M152 111L166 156 198 152 197 139 170 141 142 128" fill="#c2a66e" stroke-width="2.5"/><path d="M204 118L214 150" fill="none" stroke-width="5.5"/><path d="M204 118L211.5 142" fill="none" stroke="#526653" stroke-width="2.8"/><path d="M212 143.5L214 150" fill="none" stroke="#c9c9bd" stroke-width="2"/><path d="M197 139Q211 138 214 144Q214 152 198 152" fill="#cf9671" stroke-width="2"/></g></g></g></g></svg>