<svg xmlns="http://www.w3.org/2000/svg" width="400" height="300" viewBox="0 0 400 300"><defs><filter id="grain"><feTurbulence type="fractalNoise" baseFrequency="0.58" numOctaves="3" stitchTiles="stitch"/><feColorMatrix type="saturate" values="0"/><feComponentTransfer><feFuncA type="linear" slope="0.08"/></feComponentTransfer><feBlend mode="multiply" in2="SourceGraphic"/></filter><pattern id="bricks" x="0" y="0" width="46" height="28" patternUnits="userSpaceOnUse"><path d="M0 14H46 M23 0V14 M0 14V28 M46 14V28" fill="none" stroke="#98573f" stroke-width="1.2" opacity=".33"/></pattern><pattern id="roof" width="30" height="15" patternUnits="userSpaceOnUse"><path d="M0 14H30M15 0V14" fill="none" stroke="#50614d" stroke-width="1" opacity=".3"/></pattern></defs><rect width="400" height="300" fill="#efeedd"/><g filter="url(#grain)"><ellipse cx="200" cy="258" rx="122" ry="10" fill="#dce0ca" opacity=".66"/><g transform="translate(82 -3) scale(.94)"><g stroke="#405a4b" stroke-linecap="round" stroke-linejoin="round"><path d="M100 189L98 267 119 267 130 210 137 267 157 267 148 188Z" fill="#526653" stroke-width="2.5"/><path d="M98 265L91 278Q107 283 124 278L123 266M137 265L136 279 168 279Q174 275 156 268" fill="#534d3e" stroke-width="2.3"/><path d="M101 108L89 178 103 181 121 125M152 111L174 174 162 180 142 130" fill="#c2a66e" stroke-width="2.5"/><path d="M89 178Q86 196 96 199Q105 198 103 181M174 173Q181 187 174 193Q166 197 162 180" fill="#cf9671" stroke-width="2"/><path d="M114 94L99 111 98 190Q124 203 153 190L154 111 139 95Z" fill="#c6aa70" stroke-width="2.5"/><path d="M128 101V192M112 142H122V158H110" fill="none" stroke="#93845c" stroke-width="1.5"/><circle cx="132" cy="128" r="1.7" fill="#405a4b"/><circle cx="132" cy="156" r="1.7" fill="#405a4b"/><path d="M118 81V99L129 108 140 98 137 78" fill="#cf9671" stroke-width="2"/><path d="M106 53Q109 32 131 33Q153 35 152 60L153 73Q151 91 132 92Q113 90 109 72Q99 69 103 60L109 60" fill="#dba57c" stroke-width="2"/><path d="M107 61Q101 41 115 33Q132 19 148 32Q159 37 154 49L135 46Q119 54 115 46L111 64Z" fill="#695b43" stroke-width="2"/><path d="M145 61L149 71 143 72M137 81Q144 84 147 79" fill="none" stroke-width="1.4"/><circle cx="137" cy="61" r="1.7" fill="#405a4b"/><path d="M120 96L129 108 119 113 112 99M139 97L129 108 139 113 145 101" fill="#ded0a5" stroke-width="1.5"/></g></g></g></svg>