<svg xmlns="http://www.w3.org/2000/svg" width="400" height="300" viewBox="0 0 400 300"><defs><filter id="grain"><feTurbulence type="fractalNoise" baseFrequency="0.58" numOctaves="3" stitchTiles="stitch"/><feColorMatrix type="saturate" values="0"/><feComponentTransfer><feFuncA type="linear" slope="0.08"/></feComponentTransfer><feBlend mode="multiply" in2="SourceGraphic"/></filter></defs><rect width="400" height="300" fill="#f1ede4"/><g filter="url(#grain)"><path d="M40 44Q42 36 52 38Q57 28 68 35Q79 34 80 42Q90 40 92 47H39Z" fill="#fffcf2"/>
<g stroke="#c4aa92" stroke-width="2" stroke-linejoin="round" stroke-linecap="round">
<path d="M0 190V96H40V76L56 60 72 76V96H104V190Z" fill="#e2c9b5"/><path d="M296 190V84L316 64 336 84V100H370V70L386 56 400 70V190Z" fill="#e6d0bd"/>
<path d="M12 110H30V134H12ZM52 90H64V104H52ZM80 110H98V134H80ZM12 150H30V174H12ZM80 150H98V174H80ZM306 104H324V128H306ZM342 116H360V140H342ZM306 146H324V170H306ZM342 154H360V178H342Z" fill="#efe6d2"/>
</g>
<path d="M0 190H400V300H0Z" fill="#e6dfcc"/><path d="M0 200H400M0 212H400M0 228H400M0 248H400M0 272H400M26 190V200M78 190V200M130 190V200M182 190V200M234 190V200M286 190V200M338 190V200M390 190V200M15 200V212M75 200V212M135 200V212M195 200V212M255 200V212M315 200V212M375 200V212M34 212V228M102 212V228M170 212V228M238 212V228M306 212V228M374 212V228M19 228V248M95 228V248M171 228V248M247 228V248M323 228V248M399 228V248M42 248V272M126 248V272M210 248V272M294 248V272M378 248V272M23 272V300M115 272V300M207 272V300M299 272V300M391 272V300" fill="none" stroke="#d6cbb2" stroke-width="1.6"/>
<ellipse cx="200" cy="258" rx="150" ry="9" fill="#dce0ca" opacity=".66"/>
<g stroke="#405a4b" stroke-linecap="round" stroke-linejoin="round">
 <path d="M84 96V256M316 96V256" fill="none" stroke-width="7"/>
 <path d="M84 96V256M316 96V256" fill="none" stroke="#a9825b" stroke-width="3"/>
 <path d="M64 96L90 50H310L336 96Z" fill="#f5f1e7" stroke-width="2.5"/>
 <path d="M90 50H118L96 96H64ZM146 50H174L166 96H132ZM202 50H230L234 96H200ZM258 50H286L302 96H268Z" fill="#b8664a" stroke="none"/>
 <path d="M64 96L90 50H310L336 96Z" fill="none" stroke-width="2.5"/>
 <path d="M64 96Q81 112 98 96ZM132 96Q149 112 166 96ZM200 96Q217 112 234 96ZM268 96Q285 112 302 96Z" fill="#b8664a" stroke-width="2"/>
 <path d="M98 96Q115 112 132 96ZM166 96Q183 112 200 96ZM234 96Q251 112 268 96ZM302 96Q319 112 336 96Z" fill="#f5f1e7" stroke-width="2"/>
 <path d="M70 186H330V256H70Z" fill="#c5a06c" stroke-width="2.5"/>
 <path d="M70 206H330M70 230H330" fill="none" stroke="#a9825b" stroke-width="1.6"/>
 <path d="M64 178H336V188H64Z" fill="#bf935b" stroke-width="2.4"/>
 <circle cx="98" cy="154" r="10" fill="#7c947e" stroke-width="2"/><circle cx="118" cy="150" r="11" fill="#7c947e" stroke-width="2"/><circle cx="138" cy="155" r="10" fill="#7c947e" stroke-width="2"/><circle cx="108" cy="140" r="10" fill="#9fb29f" stroke-width="2"/><circle cx="128" cy="138" r="10" fill="#9fb29f" stroke-width="2"/>
 <path d="M104 146Q108 138 114 142M122 136Q128 130 134 136" fill="none" stroke="#5f7d5f" stroke-width="1.4"/>
 <circle cx="166" cy="154" r="9" fill="#b8664a" stroke-width="2"/><circle cx="184" cy="152" r="9" fill="#b8664a" stroke-width="2"/><circle cx="202" cy="155" r="9" fill="#b8664a" stroke-width="2"/><circle cx="175" cy="140" r="9" fill="#b8664a" stroke-width="2"/><circle cx="193" cy="139" r="9" fill="#c28260" stroke-width="2"/>
 <path d="M175 131V127M193 130L195 126M166 145V141M184 143L186 139" fill="none" stroke="#695b43" stroke-width="1.8"/>
 <circle cx="230" cy="154" r="9" fill="#d8a066" stroke-width="2"/><circle cx="248" cy="152" r="9" fill="#d8a066" stroke-width="2"/><circle cx="266" cy="155" r="9" fill="#d8a066" stroke-width="2"/><circle cx="239" cy="140" r="9" fill="#d8a066" stroke-width="2"/><circle cx="257" cy="139" r="9" fill="#d8a066" stroke-width="2"/>
 <path d="M285 160V146H295V160Z" fill="#f5f1e7" stroke-width="1.8"/><path d="M285 146V134H295V146Z" fill="#b5bb8d" stroke-width="1.8"/><path d="M285 134L282 112L288 120L291 108L294 120L299 113L295 134Z" fill="#5f7d5f" stroke-width="1.8"/>
 <path d="M296 160V140H306V160Z" fill="#f5f1e7" stroke-width="1.8"/><path d="M296 140V128H306V140Z" fill="#b5bb8d" stroke-width="1.8"/><path d="M296 128L293 106L299 114L302 102L305 114L310 107L306 128Z" fill="#5f7d5f" stroke-width="1.8"/>
 <path d="M307 160V148H317V160Z" fill="#f5f1e7" stroke-width="1.8"/><path d="M307 148V136H317V148Z" fill="#b5bb8d" stroke-width="1.8"/><path d="M307 136L304 114L310 122L313 110L316 122L321 115L317 136Z" fill="#5f7d5f" stroke-width="1.8"/>
 <path d="M86 158H150V178H86ZM154 158H214V178H154ZM218 158H278V178H218ZM282 158H320V178H282Z" fill="#c5a06c" stroke-width="2.2"/>
 <path d="M90 168H146M158 168H210M222 168H274M286 168H316" fill="none" stroke="#a9825b" stroke-width="1.4"/>
 <path d="M92 222H158V256H92Z" fill="#bf935b" stroke-width="2.2"/>
 <circle cx="104" cy="216" r="8" fill="#b5bb8d" stroke-width="2"/><circle cx="120" cy="214" r="8" fill="#b5bb8d" stroke-width="2"/><circle cx="136" cy="216" r="8" fill="#b5bb8d" stroke-width="2"/><circle cx="150" cy="217" r="7" fill="#b5bb8d" stroke-width="2"/>
 <path d="M92 222H158V256H92Z" fill="none" stroke-width="2.2"/><path d="M96 238H154" fill="none" stroke="#a9825b" stroke-width="1.4"/>
 <path d="M242 222H308V256H242Z" fill="#bf935b" stroke-width="2.2"/>
 <circle cx="254" cy="216" r="8" fill="#a3654d" stroke-width="2"/><circle cx="270" cy="214" r="8" fill="#98573f" stroke-width="2"/><circle cx="286" cy="216" r="8" fill="#a3654d" stroke-width="2"/><circle cx="300" cy="217" r="7" fill="#98573f" stroke-width="2"/>
 <path d="M242 222H308V256H242Z" fill="none" stroke-width="2.2"/><path d="M246 238H304" fill="none" stroke="#a9825b" stroke-width="1.4"/>
 </g></g></svg>
