<svg xmlns="http://www.w3.org/2000/svg" width="400" height="300" viewBox="0 0 400 300"><defs><filter id="grain"><feTurbulence type="fractalNoise" baseFrequency="0.58" numOctaves="3" stitchTiles="stitch"/><feColorMatrix type="saturate" values="0"/><feComponentTransfer><feFuncA type="linear" slope="0.08"/></feComponentTransfer><feBlend mode="multiply" in2="SourceGraphic"/></filter><pattern id="bricks" x="0" y="0" width="46" height="28" patternUnits="userSpaceOnUse"><path d="M0 14H46 M23 0V14 M0 14V28 M46 14V28" fill="none" stroke="#98573f" stroke-width="1.2" opacity=".33"/></pattern><pattern id="roof" width="30" height="15" patternUnits="userSpaceOnUse"><path d="M0 14H30M15 0V14" fill="none" stroke="#50614d" stroke-width="1" opacity=".3"/></pattern></defs><rect width="400" height="300" fill="#eef0e4"/><g filter="url(#grain)"><ellipse cx="200" cy="258" rx="122" ry="10" fill="#dce0ca" opacity=".66"/><g transform="translate(71 5) scale(.66)"><g stroke="#405a4b" stroke-linejoin="round" stroke-linecap="round"> <path d="M35 321L49 157 164 36 287 157 287 321Z" fill="#bd795c" stroke-width="2.7"/> <path d="M35 321L49 157 164 36 287 157 287 321Z" fill="url(#bricks)" stroke="none"/> <path d="M288 158L353 180 353 321H288Z" fill="#a3654d" stroke-width="2.7"/> <path d="M288 158L353 180 353 321H288Z" fill="url(#bricks)" stroke="none"/> <path d="M162 36L230 52 363 180 287 159Z" fill="#586951" stroke-width="3"/> <path d="M162 36L230 52 363 180 287 159Z" fill="url(#roof)" stroke="none"/> <path d="M218 70V22H244V95" fill="#bc795b" stroke-width="2.5"/> <path d="M214 22H248V14H214Z" fill="#d4a389" stroke-width="2"/> <path d="M30 164L51 164V146H70V125H88V105H107V84H126V64H144V43H161V30H171V43H186V63H206V84H226V105H245V125H266V146H284V164H298" fill="none" stroke="#e3b49a" stroke-width="8"/> <path d="M30 168L51 168V150H70V129H88V109H107V88H126V68H144V47H159V30H172V47H188V67H208V88H228V109H247V129H268V150H286V168H298" fill="none" stroke-width="2"/> <path d="M70 190H123V261H70Z" fill="#ead4a4" stroke-width="5"/> <path d="M69 225H124M96 190V261" fill="none" stroke-width="3"/> <path d="M204 190H257V261H204Z" fill="#ead4a4" stroke-width="5"/> <path d="M203 225H258M230 190V261" fill="none" stroke-width="3"/> <path d="M138 141V108Q165 75 191 108V141Z" fill="#e4d5ae" stroke-width="4"/> <path d="M164 97V141M138 121H191" fill="none" stroke-width="3"/> <path d="M143 321V222Q165 205 185 222V321Z" fill="#446353" stroke-width="3"/> <path d="M152 235H176V269H152ZM152 281H176V310H152Z" fill="none" stroke="#8a9c7e" stroke-width="1.6"/> <circle cx="178" cy="280" r="3" fill="#d4bc6c" stroke="none"/> <path d="M132 321H194V329H132Z" fill="#a3a28c" stroke-width="2"/> <path d="M59 189H64V261H59ZM128 189H133V261H128ZM193 189H198V261H193ZM262 189H267V261H262Z" fill="#5d745b" stroke-width="2"/> <path d="M303 214H333V261H303Z" fill="#bdc0a1" stroke-width="3"/><path d="M318 214V261M303 238H333" stroke-width="2"/> <path d="M65 264H129V271H65ZM199 264H262V271H199Z" fill="#bba086" stroke-width="2"/> <path d="M78 274H116L111 290H83Z" fill="#945f45" stroke-width="1.5"/> <path d="M81 273Q79 257 85 258Q91 260 93 272Q93 251 100 255Q106 254 103 273Q111 257 117 263Q120 269 111 276" fill="#607b57" stroke-width="1.2"/> <path d="M34 321H351" stroke-width="3"/> </g></g><g transform="translate(58 93) scale(.6)"><g stroke="#405a4b" stroke-linecap="round" stroke-linejoin="round"><path d="M100 189L98 267 119 267 130 210 137 267 157 267 148 188Z" fill="#526653" stroke-width="2.5"/><path d="M98 265L91 278Q107 283 124 278L123 266M137 265L136 279 168 279Q174 275 156 268" fill="#534d3e" stroke-width="2.3"/><path d="M101 108L89 178 103 181 121 125M152 111L174 174 162 180 142 130" fill="#c2a66e" stroke-width="2.5"/><path d="M89 178Q86 196 96 199Q105 198 103 181M174 173Q181 187 174 193Q166 197 162 180" fill="#cf9671" stroke-width="2"/><path d="M114 94L99 111 98 190Q124 203 153 190L154 111 139 95Z" fill="#c6aa70" stroke-width="2.5"/><path d="M128 101V192M112 142H122V158H110" fill="none" stroke="#93845c" stroke-width="1.5"/><circle cx="132" cy="128" r="1.7" fill="#405a4b"/><circle cx="132" cy="156" r="1.7" fill="#405a4b"/><path d="M118 81V99L129 108 140 98 137 78" fill="#cf9671" stroke-width="2"/><path d="M106 53Q109 32 131 33Q153 35 152 60L153 73Q151 91 132 92Q113 90 109 72Q99 69 103 60L109 60" fill="#dba57c" stroke-width="2"/><path d="M107 61Q101 41 115 33Q132 19 148 32Q159 37 154 49L135 46Q119 54 115 46L111 64Z" fill="#695b43" stroke-width="2"/><path d="M145 61L149 71 143 72M137 81Q144 84 147 79" fill="none" stroke-width="1.4"/><circle cx="137" cy="61" r="1.7" fill="#405a4b"/><path d="M120 96L129 108 119 113 112 99M139 97L129 108 139 113 145 101" fill="#ded0a5" stroke-width="1.5"/></g></g><g transform="translate(153 93) scale(.6)"><g stroke="#405a4b" stroke-linecap="round" stroke-linejoin="round"><path d="M115 214L115 268H131L137 215M143 214L147 268H163L161 213" fill="#dfa98b" stroke-width="2.4"/><path d="M115 267L107 279Q120 283 138 279L134 268M147 266L146 280H176Q182 275 165 268" fill="#3f584a" stroke-width="2.4"/><path d="M114 98L95 162 98 189 111 188 113 163 130 116M158 103L178 160 175 187 162 186 163 164 146 123" fill="#7c947e" stroke-width="2.4"/><path d="M98 188Q94 205 103 208Q112 208 111 188M175 186Q179 201 172 205Q163 207 162 187" fill="#dfa98b" stroke-width="2"/><path d="M121 97L111 112 117 162 99 219Q134 233 174 218L154 161 163 114 147 98Z" fill="#b97656" stroke-width="2.5"/><path d="M121 97L111 112 117 159Q137 166 155 158L163 114 147 98Z" fill="#7c947e" stroke-width="2"/><path d="M124 84V101L134 109 145 101 145 83" fill="#dfa98b" stroke-width="2"/><path d="M113 53Q113 29 134 28Q156 28 160 52L157 76Q154 92 136 92Q119 91 115 75Z" fill="#dfa98b" stroke-width="2"/><path d="M115 72Q99 53 115 30Q131 15 151 28Q167 39 160 54Q144 54 135 39Q128 54 117 55Z" fill="#77533e" stroke-width="2.5"/><path d="M111 42Q88 42 96 66Q108 76 116 56" fill="#77533e" stroke-width="2"/><circle cx="143" cy="62" r="1.6" fill="#405a4b"/><path d="M151 62L157 72 150 73M142 82Q150 84 151 80" fill="none" stroke-width="1.3"/><path d="M124 102L134 111 145 102M136 114V157M118 182L114 211M153 180L160 214" fill="none" stroke="#dbc8a3" stroke-width="1.4"/></g></g></g></svg>