<svg xmlns="http://www.w3.org/2000/svg" width="400" height="300" viewBox="0 0 400 300"><defs><filter id="grain"><feTurbulence type="fractalNoise" baseFrequency="0.58" numOctaves="3" stitchTiles="stitch"/><feColorMatrix type="saturate" values="0"/><feComponentTransfer><feFuncA type="linear" slope="0.08"/></feComponentTransfer><feBlend mode="multiply" in2="SourceGraphic"/></filter></defs><rect width="400" height="300" fill="#eef0e4"/><g filter="url(#grain)"><ellipse cx="200" cy="258" rx="110" ry="10" fill="#dce0ca" opacity=".66"/><g stroke="#405a4b" stroke-linecap="round" stroke-linejoin="round">
<path d="M206 70Q196 58 206 46Q214 36 206 26" fill="none" stroke="#c9c9bd" stroke-width="4"/>
<path d="M252 120Q294 116 292 160Q290 204 248 206" fill="none" stroke-width="14"/>
<path d="M252 120Q294 116 292 160Q290 204 248 206" fill="none" stroke="#eef0e4" stroke-width="9"/>
<path d="M146 96L154 242Q155 252 166 252H234Q245 252 246 242L254 96Z" fill="#fffef9" opacity=".55" stroke="none"/>
<path d="M152 124L158 236Q159 242 167 242H233Q241 242 242 236L248 124Z" fill="#dcae66" opacity=".85" stroke="none"/>
<path d="M178 190L208 186L212 226L182 230Z" fill="#bf935b" opacity=".75" stroke="#98734a" stroke-width="1.3"/>
<ellipse cx="200" cy="124" rx="48" ry="8" fill="#e8c585" stroke="#bf935b" stroke-width="1.3"/>
<path d="M158 236Q159 243 167 243H233Q241 243 242 236" fill="none" stroke="#c9c9bd" stroke-width="1.5"/>
<path d="M146 96L154 242Q155 252 166 252H234Q245 252 246 242L254 96" fill="none" stroke-width="2.5"/>
<ellipse cx="200" cy="96" rx="54" ry="10" fill="#fffef9" fill-opacity=".35" stroke-width="2.5"/>
<path d="M160 110L166 228" fill="none" stroke="#fffef9" stroke-width="6" opacity=".85"/>
<path d="M236 112L233 150" fill="none" stroke="#fffef9" stroke-width="3" opacity=".7"/>
<path d="M194 188Q190 150 178 112Q166 94 150 96Q142 100 138 132" fill="none" stroke="#9a9d92" stroke-width="1.4"/>
<path d="M126 132L150 130L152 160L128 162Z" fill="#fffef9" stroke-width="2"/>
<path d="M134 136L144 135" fill="none" stroke="#bf935b" stroke-width="2"/>
</g></g></svg>
